<svg xmlns="http://www.w3.org/2000/svg" viewBox="0 0 300 300" width="300" height="300" fill="none">
  <defs><linearGradient id="pulse" x1="0" y1="0" x2="1" y2="0">
      <stop offset="0" stop-color="#a5f3fc"/><stop offset=".5" stop-color="#fff"/><stop offset="1" stop-color="#a5f3fc"/></linearGradient>
    <filter id="glow" x="-70%" y="-70%" width="240%" height="240%"><feGaussianBlur stdDeviation="4.5" result="b"/>
      <feMerge><feMergeNode in="b"/><feMergeNode in="SourceGraphic"/></feMerge></filter>
    <filter id="ringGlow" x="-40%" y="-40%" width="180%" height="180%"><feDropShadow dx="0" dy="0" stdDeviation="4" flood-color="#22c4e6" flood-opacity="0.38"/></filter></defs>
  <g filter="url(#ringGlow)">
    <path d="M96.61 227.97 A94.50 94.50 0 0 1 92.34 224.87 L111.56 199.91 A63.00 63.00 0 0 0 114.41 201.98 Z" fill="#66e8f9"/>
    <path d="M93.92 226.06 A94.50 94.50 0 0 1 89.76 222.81 L109.84 198.54 A63.00 63.00 0 0 0 112.61 200.71 Z" fill="#65e7f9"/>
    <path d="M91.30 224.06 A94.50 94.50 0 0 1 87.26 220.67 L108.17 197.11 A63.00 63.00 0 0 0 110.87 199.37 Z" fill="#63e7f8"/>
    <path d="M88.75 221.97 A94.50 94.50 0 0 1 84.83 218.43 L106.55 195.62 A63.00 63.00 0 0 0 109.17 197.98 Z" fill="#62e6f8"/>
    <path d="M86.28 219.78 A94.50 94.50 0 0 1 82.48 216.12 L104.99 194.08 A63.00 63.00 0 0 0 107.52 196.52 Z" fill="#60e6f8"/>
    <path d="M83.88 217.52 A94.50 94.50 0 0 1 80.22 213.72 L103.48 192.48 A63.00 63.00 0 0 0 105.92 195.01 Z" fill="#5fe5f8"/>
    <path d="M81.57 215.17 A94.50 94.50 0 0 1 78.03 211.25 L102.02 190.83 A63.00 63.00 0 0 0 104.38 193.45 Z" fill="#5de5f7"/>
    <path d="M79.33 212.74 A94.50 94.50 0 0 1 75.94 208.70 L100.63 189.13 A63.00 63.00 0 0 0 102.89 191.83 Z" fill="#5ce4f7"/>
    <path d="M77.19 210.24 A94.50 94.50 0 0 1 73.94 206.08 L99.29 187.39 A63.00 63.00 0 0 0 101.46 190.16 Z" fill="#5ae4f7"/>
    <path d="M75.13 207.66 A94.50 94.50 0 0 1 72.03 203.39 L98.02 185.59 A63.00 63.00 0 0 0 100.09 188.44 Z" fill="#58e4f7"/>
    <path d="M73.16 205.01 A94.50 94.50 0 0 1 70.21 200.64 L96.81 183.76 A63.00 63.00 0 0 0 98.77 186.67 Z" fill="#57e3f6"/>
    <path d="M71.29 202.30 A94.50 94.50 0 0 1 68.49 197.82 L95.66 181.88 A63.00 63.00 0 0 0 97.53 184.86 Z" fill="#55e3f6"/>
    <path d="M69.51 199.52 A94.50 94.50 0 0 1 66.87 194.95 L94.58 179.96 A63.00 63.00 0 0 0 96.34 183.01 Z" fill="#54e2f6"/>
    <path d="M67.83 196.68 A94.50 94.50 0 0 1 65.36 192.02 L93.57 178.01 A63.00 63.00 0 0 0 95.22 181.12 Z" fill="#52e2f6"/>
    <path d="M66.25 193.78 A94.50 94.50 0 0 1 63.94 189.04 L92.63 176.03 A63.00 63.00 0 0 0 94.17 179.19 Z" fill="#51e1f5"/>
    <path d="M64.78 190.83 A94.50 94.50 0 0 1 62.63 186.01 L91.75 174.01 A63.00 63.00 0 0 0 93.18 177.22 Z" fill="#4fe1f5"/>
    <path d="M63.40 187.83 A94.50 94.50 0 0 1 61.43 182.94 L90.95 171.96 A63.00 63.00 0 0 0 92.27 175.22 Z" fill="#4ee0f5"/>
    <path d="M62.14 184.79 A94.50 94.50 0 0 1 60.33 179.83 L90.22 169.89 A63.00 63.00 0 0 0 91.42 173.19 Z" fill="#4ce0f5"/>
    <path d="M60.98 181.70 A94.50 94.50 0 0 1 59.34 176.68 L89.56 167.79 A63.00 63.00 0 0 0 90.65 171.13 Z" fill="#4bdff4"/>
    <path d="M59.92 178.57 A94.50 94.50 0 0 1 58.47 173.50 L88.98 165.67 A63.00 63.00 0 0 0 89.95 169.05 Z" fill="#49dff4"/>
    <path d="M58.98 175.41 A94.50 94.50 0 0 1 57.70 170.29 L88.47 163.53 A63.00 63.00 0 0 0 89.32 166.94 Z" fill="#48def4"/>
    <path d="M58.15 172.22 A94.50 94.50 0 0 1 57.05 167.06 L88.03 161.37 A63.00 63.00 0 0 0 88.77 164.81 Z" fill="#46def4"/>
    <path d="M57.43 169.00 A94.50 94.50 0 0 1 56.51 163.80 L87.68 159.20 A63.00 63.00 0 0 0 88.29 162.67 Z" fill="#44def4"/>
    <path d="M56.82 165.76 A94.50 94.50 0 0 1 56.09 160.53 L87.39 157.02 A63.00 63.00 0 0 0 87.88 160.51 Z" fill="#43ddf3"/>
    <path d="M56.33 162.50 A94.50 94.50 0 0 1 55.78 157.25 L87.19 154.83 A63.00 63.00 0 0 0 87.55 158.33 Z" fill="#41ddf3"/>
    <path d="M55.95 159.22 A94.50 94.50 0 0 1 55.58 153.96 L87.06 152.64 A63.00 63.00 0 0 0 87.30 156.15 Z" fill="#40dcf3"/>
    <path d="M55.69 155.93 A94.50 94.50 0 0 1 55.50 150.66 L87.00 150.44 A63.00 63.00 0 0 0 87.12 153.96 Z" fill="#3edcf3"/>
    <path d="M55.54 152.64 A94.50 94.50 0 0 1 55.54 147.36 L87.02 148.24 A63.00 63.00 0 0 0 87.02 151.76 Z" fill="#3ddbf2"/>
    <path d="M55.50 149.34 A94.50 94.50 0 0 1 55.69 144.07 L87.12 146.04 A63.00 63.00 0 0 0 87.00 149.56 Z" fill="#3bdbf2"/>
    <path d="M55.58 146.04 A94.50 94.50 0 0 1 55.95 140.78 L87.30 143.85 A63.00 63.00 0 0 0 87.06 147.36 Z" fill="#3adaf2"/>
    <path d="M55.78 142.75 A94.50 94.50 0 0 1 56.33 137.50 L87.55 141.67 A63.00 63.00 0 0 0 87.19 145.17 Z" fill="#38daf2"/>
    <path d="M56.09 139.47 A94.50 94.50 0 0 1 56.82 134.24 L87.88 139.49 A63.00 63.00 0 0 0 87.39 142.98 Z" fill="#37d9f1"/>
    <path d="M56.51 136.20 A94.50 94.50 0 0 1 57.43 131.00 L88.29 137.33 A63.00 63.00 0 0 0 87.68 140.80 Z" fill="#35d9f1"/>
    <path d="M57.05 132.94 A94.50 94.50 0 0 1 58.15 127.78 L88.77 135.19 A63.00 63.00 0 0 0 88.03 138.63 Z" fill="#34d8f1"/>
    <path d="M57.70 129.71 A94.50 94.50 0 0 1 58.98 124.59 L89.32 133.06 A63.00 63.00 0 0 0 88.47 136.47 Z" fill="#32d8f1"/>
    <path d="M58.47 126.50 A94.50 94.50 0 0 1 59.92 121.43 L89.95 130.95 A63.00 63.00 0 0 0 88.98 134.33 Z" fill="#31d7f0"/>
    <path d="M59.34 123.32 A94.50 94.50 0 0 1 60.98 118.30 L90.65 128.87 A63.00 63.00 0 0 0 89.56 132.21 Z" fill="#2fd7f0"/>
    <path d="M60.33 120.17 A94.50 94.50 0 0 1 62.14 115.21 L91.42 126.81 A63.00 63.00 0 0 0 90.22 130.11 Z" fill="#2ed6f0"/>
    <path d="M61.43 117.06 A94.50 94.50 0 0 1 63.40 112.17 L92.27 124.78 A63.00 63.00 0 0 0 90.95 128.04 Z" fill="#2cd6f0"/>
    <path d="M62.63 113.99 A94.50 94.50 0 0 1 64.78 109.17 L93.18 122.78 A63.00 63.00 0 0 0 91.75 125.99 Z" fill="#2ad6ef"/>
    <path d="M63.94 110.96 A94.50 94.50 0 0 1 66.25 106.22 L94.17 120.81 A63.00 63.00 0 0 0 92.63 123.97 Z" fill="#29d5ef"/>
    <path d="M65.36 107.98 A94.50 94.50 0 0 1 67.83 103.32 L95.22 118.88 A63.00 63.00 0 0 0 93.57 121.99 Z" fill="#27d5ef"/>
    <path d="M66.87 105.05 A94.50 94.50 0 0 1 69.51 100.48 L96.34 116.99 A63.00 63.00 0 0 0 94.58 120.04 Z" fill="#26d4ef"/>
    <path d="M68.49 102.18 A94.50 94.50 0 0 1 71.29 97.70 L97.53 115.14 A63.00 63.00 0 0 0 95.66 118.12 Z" fill="#24d4ee"/>
    <path d="M70.21 99.36 A94.50 94.50 0 0 1 73.16 94.99 L98.77 113.33 A63.00 63.00 0 0 0 96.81 116.24 Z" fill="#23d3ee"/>
    <path d="M72.03 96.61 A94.50 94.50 0 0 1 75.13 92.34 L100.09 111.56 A63.00 63.00 0 0 0 98.02 114.41 Z" fill="#22d3ed"/>
    <path d="M73.94 93.92 A94.50 94.50 0 0 1 77.19 89.76 L101.46 109.84 A63.00 63.00 0 0 0 99.29 112.61 Z" fill="#23d3ec"/>
    <path d="M75.94 91.30 A94.50 94.50 0 0 1 79.33 87.26 L102.89 108.17 A63.00 63.00 0 0 0 100.63 110.87 Z" fill="#23d3ea"/>
    <path d="M78.03 88.75 A94.50 94.50 0 0 1 81.57 84.83 L104.38 106.55 A63.00 63.00 0 0 0 102.02 109.17 Z" fill="#23d3e9"/>
    <path d="M80.22 86.28 A94.50 94.50 0 0 1 83.88 82.48 L105.92 104.99 A63.00 63.00 0 0 0 103.48 107.52 Z" fill="#24d3e7"/>
    <path d="M82.48 83.88 A94.50 94.50 0 0 1 86.28 80.22 L107.52 103.48 A63.00 63.00 0 0 0 104.99 105.92 Z" fill="#24d3e6"/>
    <path d="M84.83 81.57 A94.50 94.50 0 0 1 88.75 78.03 L109.17 102.02 A63.00 63.00 0 0 0 106.55 104.38 Z" fill="#24d3e4"/>
    <path d="M87.26 79.33 A94.50 94.50 0 0 1 91.30 75.94 L110.87 100.63 A63.00 63.00 0 0 0 108.17 102.89 Z" fill="#25d3e2"/>
    <path d="M89.76 77.19 A94.50 94.50 0 0 1 93.92 73.94 L112.61 99.29 A63.00 63.00 0 0 0 109.84 101.46 Z" fill="#25d3e1"/>
    <path d="M92.34 75.13 A94.50 94.50 0 0 1 96.61 72.03 L114.41 98.02 A63.00 63.00 0 0 0 111.56 100.09 Z" fill="#25d3df"/>
    <path d="M94.99 73.16 A94.50 94.50 0 0 1 99.36 70.21 L116.24 96.81 A63.00 63.00 0 0 0 113.33 98.77 Z" fill="#26d3de"/>
    <path d="M97.70 71.29 A94.50 94.50 0 0 1 102.18 68.49 L118.12 95.66 A63.00 63.00 0 0 0 115.14 97.53 Z" fill="#26d3dc"/>
    <path d="M100.48 69.51 A94.50 94.50 0 0 1 105.05 66.87 L120.04 94.58 A63.00 63.00 0 0 0 116.99 96.34 Z" fill="#26d3db"/>
    <path d="M103.32 67.83 A94.50 94.50 0 0 1 107.98 65.36 L121.99 93.57 A63.00 63.00 0 0 0 118.88 95.22 Z" fill="#27d3d9"/>
    <path d="M106.22 66.25 A94.50 94.50 0 0 1 110.96 63.94 L123.97 92.63 A63.00 63.00 0 0 0 120.81 94.17 Z" fill="#27d3d8"/>
    <path d="M109.17 64.78 A94.50 94.50 0 0 1 113.99 62.63 L125.99 91.75 A63.00 63.00 0 0 0 122.78 93.18 Z" fill="#28d4d6"/>
    <path d="M112.17 63.40 A94.50 94.50 0 0 1 117.06 61.43 L128.04 90.95 A63.00 63.00 0 0 0 124.78 92.27 Z" fill="#28d4d5"/>
    <path d="M115.21 62.14 A94.50 94.50 0 0 1 120.17 60.33 L130.11 90.22 A63.00 63.00 0 0 0 126.81 91.42 Z" fill="#28d4d3"/>
    <path d="M118.30 60.98 A94.50 94.50 0 0 1 123.32 59.34 L132.21 89.56 A63.00 63.00 0 0 0 128.87 90.65 Z" fill="#29d4d2"/>
    <path d="M121.43 59.92 A94.50 94.50 0 0 1 126.50 58.47 L134.33 88.98 A63.00 63.00 0 0 0 130.95 89.95 Z" fill="#29d4d0"/>
    <path d="M124.59 58.98 A94.50 94.50 0 0 1 129.71 57.70 L136.47 88.47 A63.00 63.00 0 0 0 133.06 89.32 Z" fill="#29d4cf"/>
    <path d="M127.78 58.15 A94.50 94.50 0 0 1 132.94 57.05 L138.63 88.03 A63.00 63.00 0 0 0 135.19 88.77 Z" fill="#2ad4cd"/>
    <path d="M131.00 57.43 A94.50 94.50 0 0 1 136.20 56.51 L140.80 87.68 A63.00 63.00 0 0 0 137.33 88.29 Z" fill="#2ad4cb"/>
    <path d="M134.24 56.82 A94.50 94.50 0 0 1 139.47 56.09 L142.98 87.39 A63.00 63.00 0 0 0 139.49 87.88 Z" fill="#2ad4ca"/>
    <path d="M137.50 56.33 A94.50 94.50 0 0 1 142.75 55.78 L145.17 87.19 A63.00 63.00 0 0 0 141.67 87.55 Z" fill="#2bd4c8"/>
    <path d="M140.78 55.95 A94.50 94.50 0 0 1 146.04 55.58 L147.36 87.06 A63.00 63.00 0 0 0 143.85 87.30 Z" fill="#2bd4c7"/>
    <path d="M144.07 55.69 A94.50 94.50 0 0 1 149.34 55.50 L149.56 87.00 A63.00 63.00 0 0 0 146.04 87.12 Z" fill="#2cd4c5"/>
    <path d="M147.36 55.54 A94.50 94.50 0 0 1 152.64 55.54 L151.76 87.02 A63.00 63.00 0 0 0 148.24 87.02 Z" fill="#2cd4c4"/>
    <path d="M150.66 55.50 A94.50 94.50 0 0 1 155.93 55.69 L153.96 87.12 A63.00 63.00 0 0 0 150.44 87.00 Z" fill="#2cd4c2"/>
    <path d="M153.96 55.58 A94.50 94.50 0 0 1 159.22 55.95 L156.15 87.30 A63.00 63.00 0 0 0 152.64 87.06 Z" fill="#2dd4c1"/>
    <path d="M157.25 55.78 A94.50 94.50 0 0 1 162.50 56.33 L158.33 87.55 A63.00 63.00 0 0 0 154.83 87.19 Z" fill="#2dd4bf"/>
    <path d="M160.53 56.09 A94.50 94.50 0 0 1 165.76 56.82 L160.51 87.88 A63.00 63.00 0 0 0 157.02 87.39 Z" fill="#2dd2c0"/>
    <path d="M163.80 56.51 A94.50 94.50 0 0 1 169.00 57.43 L162.67 88.29 A63.00 63.00 0 0 0 159.20 87.68 Z" fill="#2ed0c1"/>
    <path d="M167.06 57.05 A94.50 94.50 0 0 1 172.22 58.15 L164.81 88.77 A63.00 63.00 0 0 0 161.37 88.03 Z" fill="#2ecec3"/>
    <path d="M170.29 57.70 A94.50 94.50 0 0 1 175.41 58.98 L166.94 89.32 A63.00 63.00 0 0 0 163.53 88.47 Z" fill="#2ecdc4"/>
    <path d="M173.50 58.47 A94.50 94.50 0 0 1 178.57 59.92 L169.05 89.95 A63.00 63.00 0 0 0 165.67 88.98 Z" fill="#2fcbc5"/>
    <path d="M176.68 59.34 A94.50 94.50 0 0 1 181.70 60.98 L171.13 90.65 A63.00 63.00 0 0 0 167.79 89.56 Z" fill="#2fc9c7"/>
    <path d="M179.83 60.33 A94.50 94.50 0 0 1 184.79 62.14 L173.19 91.42 A63.00 63.00 0 0 0 169.89 90.22 Z" fill="#2fc7c8"/>
    <path d="M182.94 61.43 A94.50 94.50 0 0 1 187.83 63.40 L175.22 92.27 A63.00 63.00 0 0 0 171.96 90.95 Z" fill="#30c5c9"/>
    <path d="M186.01 62.63 A94.50 94.50 0 0 1 190.83 64.78 L177.22 93.18 A63.00 63.00 0 0 0 174.01 91.75 Z" fill="#30c3ca"/>
    <path d="M189.04 63.94 A94.50 94.50 0 0 1 193.78 66.25 L179.19 94.17 A63.00 63.00 0 0 0 176.03 92.63 Z" fill="#30c1cc"/>
    <path d="M192.02 65.36 A94.50 94.50 0 0 1 196.68 67.83 L181.12 95.22 A63.00 63.00 0 0 0 178.01 93.57 Z" fill="#31bfcd"/>
    <path d="M194.95 66.87 A94.50 94.50 0 0 1 199.52 69.51 L183.01 96.34 A63.00 63.00 0 0 0 179.96 94.58 Z" fill="#31bdce"/>
    <path d="M197.82 68.49 A94.50 94.50 0 0 1 202.30 71.29 L184.86 97.53 A63.00 63.00 0 0 0 181.88 95.66 Z" fill="#31bccf"/>
    <path d="M200.64 70.21 A94.50 94.50 0 0 1 205.01 73.16 L186.67 98.77 A63.00 63.00 0 0 0 183.76 96.81 Z" fill="#32bad1"/>
    <path d="M203.39 72.03 A94.50 94.50 0 0 1 207.66 75.13 L188.44 100.09 A63.00 63.00 0 0 0 185.59 98.02 Z" fill="#32b8d2"/>
    <path d="M206.08 73.94 A94.50 94.50 0 0 1 210.24 77.19 L190.16 101.46 A63.00 63.00 0 0 0 187.39 99.29 Z" fill="#32b6d3"/>
    <path d="M208.70 75.94 A94.50 94.50 0 0 1 212.74 79.33 L191.83 102.89 A63.00 63.00 0 0 0 189.13 100.63 Z" fill="#32b4d5"/>
    <path d="M211.25 78.03 A94.50 94.50 0 0 1 215.17 81.57 L193.45 104.38 A63.00 63.00 0 0 0 190.83 102.02 Z" fill="#33b2d6"/>
    <path d="M213.72 80.22 A94.50 94.50 0 0 1 217.52 83.88 L195.01 105.92 A63.00 63.00 0 0 0 192.48 103.48 Z" fill="#33b0d7"/>
    <path d="M216.12 82.48 A94.50 94.50 0 0 1 219.78 86.28 L196.52 107.52 A63.00 63.00 0 0 0 194.08 104.99 Z" fill="#33aed8"/>
    <path d="M218.43 84.83 A94.50 94.50 0 0 1 221.97 88.75 L197.98 109.17 A63.00 63.00 0 0 0 195.62 106.55 Z" fill="#34acda"/>
    <path d="M220.67 87.26 A94.50 94.50 0 0 1 224.06 91.30 L199.37 110.87 A63.00 63.00 0 0 0 197.11 108.17 Z" fill="#34aadb"/>
    <path d="M222.81 89.76 A94.50 94.50 0 0 1 226.06 93.92 L200.71 112.61 A63.00 63.00 0 0 0 198.54 109.84 Z" fill="#34a9dc"/>
    <path d="M224.87 92.34 A94.50 94.50 0 0 1 227.97 96.61 L201.98 114.41 A63.00 63.00 0 0 0 199.91 111.56 Z" fill="#35a7dd"/>
    <path d="M226.84 94.99 A94.50 94.50 0 0 1 229.79 99.36 L203.19 116.24 A63.00 63.00 0 0 0 201.23 113.33 Z" fill="#35a5df"/>
    <path d="M228.71 97.70 A94.50 94.50 0 0 1 231.51 102.18 L204.34 118.12 A63.00 63.00 0 0 0 202.47 115.14 Z" fill="#35a3e0"/>
    <path d="M230.49 100.48 A94.50 94.50 0 0 1 233.13 105.05 L205.42 120.04 A63.00 63.00 0 0 0 203.66 116.99 Z" fill="#36a1e1"/>
    <path d="M232.17 103.32 A94.50 94.50 0 0 1 234.64 107.98 L206.43 121.99 A63.00 63.00 0 0 0 204.78 118.88 Z" fill="#369fe3"/>
    <path d="M233.75 106.22 A94.50 94.50 0 0 1 236.06 110.96 L207.37 123.97 A63.00 63.00 0 0 0 205.83 120.81 Z" fill="#369de4"/>
    <path d="M235.22 109.17 A94.50 94.50 0 0 1 237.37 113.99 L208.25 125.99 A63.00 63.00 0 0 0 206.82 122.78 Z" fill="#379be5"/>
    <path d="M236.60 112.17 A94.50 94.50 0 0 1 238.57 117.06 L209.05 128.04 A63.00 63.00 0 0 0 207.73 124.78 Z" fill="#3799e6"/>
    <path d="M237.86 115.21 A94.50 94.50 0 0 1 239.67 120.17 L209.78 130.11 A63.00 63.00 0 0 0 208.58 126.81 Z" fill="#3797e8"/>
    <path d="M239.02 118.30 A94.50 94.50 0 0 1 240.66 123.32 L210.44 132.21 A63.00 63.00 0 0 0 209.35 128.87 Z" fill="#3896e9"/>
    <path d="M240.08 121.43 A94.50 94.50 0 0 1 241.53 126.50 L211.02 134.33 A63.00 63.00 0 0 0 210.05 130.95 Z" fill="#3894ea"/>
    <path d="M241.02 124.59 A94.50 94.50 0 0 1 242.30 129.71 L211.53 136.47 A63.00 63.00 0 0 0 210.68 133.06 Z" fill="#3892eb"/>
    <path d="M241.85 127.78 A94.50 94.50 0 0 1 242.95 132.94 L211.97 138.63 A63.00 63.00 0 0 0 211.23 135.19 Z" fill="#3990ed"/>
    <path d="M242.57 131.00 A94.50 94.50 0 0 1 243.49 136.20 L212.32 140.80 A63.00 63.00 0 0 0 211.71 137.33 Z" fill="#398eee"/>
    <path d="M243.18 134.24 A94.50 94.50 0 0 1 243.91 139.47 L212.61 142.98 A63.00 63.00 0 0 0 212.12 139.49 Z" fill="#398cef"/>
    <path d="M243.67 137.50 A94.50 94.50 0 0 1 244.22 142.75 L212.81 145.17 A63.00 63.00 0 0 0 212.45 141.67 Z" fill="#3a8af1"/>
    <path d="M244.05 140.78 A94.50 94.50 0 0 1 244.42 146.04 L212.94 147.36 A63.00 63.00 0 0 0 212.70 143.85 Z" fill="#3a88f2"/>
    <path d="M244.31 144.07 A94.50 94.50 0 0 1 244.50 149.34 L213.00 149.56 A63.00 63.00 0 0 0 212.88 146.04 Z" fill="#3a86f3"/>
    <path d="M244.46 147.36 A94.50 94.50 0 0 1 244.46 152.64 L212.98 151.76 A63.00 63.00 0 0 0 212.98 148.24 Z" fill="#3b84f4"/>
    <path d="M244.50 150.66 A94.50 94.50 0 0 1 244.31 155.93 L212.88 153.96 A63.00 63.00 0 0 0 213.00 150.44 Z" fill="#3b83f6"/>
    <path d="M244.42 153.96 A94.50 94.50 0 0 1 244.05 159.22 L212.70 156.15 A63.00 63.00 0 0 0 212.94 152.64 Z" fill="#3d82f6"/>
    <path d="M244.22 157.25 A94.50 94.50 0 0 1 243.67 162.50 L212.45 158.33 A63.00 63.00 0 0 0 212.81 154.83 Z" fill="#3f83f6"/>
    <path d="M243.91 160.53 A94.50 94.50 0 0 1 243.18 165.76 L212.12 160.51 A63.00 63.00 0 0 0 212.61 157.02 Z" fill="#4283f6"/>
    <path d="M243.49 163.80 A94.50 94.50 0 0 1 242.57 169.00 L211.71 162.67 A63.00 63.00 0 0 0 212.32 159.20 Z" fill="#4483f6"/>
    <path d="M242.95 167.06 A94.50 94.50 0 0 1 241.85 172.22 L211.23 164.81 A63.00 63.00 0 0 0 211.97 161.37 Z" fill="#4684f6"/>
    <path d="M242.30 170.29 A94.50 94.50 0 0 1 241.02 175.41 L210.68 166.94 A63.00 63.00 0 0 0 211.53 163.53 Z" fill="#4984f6"/>
    <path d="M241.53 173.50 A94.50 94.50 0 0 1 240.08 178.57 L210.05 169.05 A63.00 63.00 0 0 0 211.02 165.67 Z" fill="#4b84f6"/>
    <path d="M240.66 176.68 A94.50 94.50 0 0 1 239.02 181.70 L209.35 171.13 A63.00 63.00 0 0 0 210.44 167.79 Z" fill="#4e85f7"/>
    <path d="M239.67 179.83 A94.50 94.50 0 0 1 237.86 184.79 L208.58 173.19 A63.00 63.00 0 0 0 209.78 169.89 Z" fill="#5085f7"/>
    <path d="M238.57 182.94 A94.50 94.50 0 0 1 236.60 187.83 L207.73 175.22 A63.00 63.00 0 0 0 209.05 171.96 Z" fill="#5385f7"/>
    <path d="M237.37 186.01 A94.50 94.50 0 0 1 235.22 190.83 L206.82 177.22 A63.00 63.00 0 0 0 208.25 174.01 Z" fill="#5586f7"/>
    <path d="M236.06 189.04 A94.50 94.50 0 0 1 233.75 193.78 L205.83 179.19 A63.00 63.00 0 0 0 207.37 176.03 Z" fill="#5786f7"/>
    <path d="M234.64 192.02 A94.50 94.50 0 0 1 232.17 196.68 L204.78 181.12 A63.00 63.00 0 0 0 206.43 178.01 Z" fill="#5a86f7"/>
    <path d="M233.13 194.95 A94.50 94.50 0 0 1 230.49 199.52 L203.66 183.01 A63.00 63.00 0 0 0 205.42 179.96 Z" fill="#5c87f7"/>
    <path d="M231.51 197.82 A94.50 94.50 0 0 1 228.71 202.30 L202.47 184.86 A63.00 63.00 0 0 0 204.34 181.88 Z" fill="#5f87f7"/>
    <path d="M229.79 200.64 A94.50 94.50 0 0 1 226.84 205.01 L201.23 186.67 A63.00 63.00 0 0 0 203.19 183.76 Z" fill="#6187f7"/>
    <path d="M227.97 203.39 A94.50 94.50 0 0 1 224.87 207.66 L199.91 188.44 A63.00 63.00 0 0 0 201.98 185.59 Z" fill="#6488f7"/>
    <path d="M226.06 206.08 A94.50 94.50 0 0 1 222.81 210.24 L198.54 190.16 A63.00 63.00 0 0 0 200.71 187.39 Z" fill="#6688f7"/>
    <path d="M224.06 208.70 A94.50 94.50 0 0 1 220.67 212.74 L197.11 191.83 A63.00 63.00 0 0 0 199.37 189.13 Z" fill="#6888f7"/>
    <path d="M221.97 211.25 A94.50 94.50 0 0 1 218.43 215.17 L195.62 193.45 A63.00 63.00 0 0 0 197.98 190.83 Z" fill="#6b89f7"/>
    <path d="M219.78 213.72 A94.50 94.50 0 0 1 216.12 217.52 L194.08 195.01 A63.00 63.00 0 0 0 196.52 192.48 Z" fill="#6d89f7"/>
    <path d="M217.52 216.12 A94.50 94.50 0 0 1 213.72 219.78 L192.48 196.52 A63.00 63.00 0 0 0 195.01 194.08 Z" fill="#708af8"/>
    <path d="M215.17 218.43 A94.50 94.50 0 0 1 211.25 221.97 L190.83 197.98 A63.00 63.00 0 0 0 193.45 195.62 Z" fill="#728af8"/>
    <path d="M212.74 220.67 A94.50 94.50 0 0 1 208.70 224.06 L189.13 199.37 A63.00 63.00 0 0 0 191.83 197.11 Z" fill="#758af8"/>
    <path d="M210.24 222.81 A94.50 94.50 0 0 1 206.08 226.06 L187.39 200.71 A63.00 63.00 0 0 0 190.16 198.54 Z" fill="#778bf8"/>
    <path d="M207.66 224.87 A94.50 94.50 0 0 1 203.39 227.97 L185.59 201.98 A63.00 63.00 0 0 0 188.44 199.91 Z" fill="#798bf8"/>
    <path d="M205.01 226.84 A94.50 94.50 0 0 1 200.64 229.79 L183.76 203.19 A63.00 63.00 0 0 0 186.67 201.23 Z" fill="#7c8bf8"/>
    <path d="M202.30 228.71 A94.50 94.50 0 0 1 197.82 231.51 L181.88 204.34 A63.00 63.00 0 0 0 184.86 202.47 Z" fill="#7e8cf8"/>
    <path d="M199.52 230.49 A94.50 94.50 0 0 1 194.95 233.13 L179.96 205.42 A63.00 63.00 0 0 0 183.01 203.66 Z" fill="#818cf8"/>
    <path d="M196.68 232.17 A94.50 94.50 0 0 1 192.02 234.64 L178.01 206.43 A63.00 63.00 0 0 0 181.12 204.78 Z" fill="#7f8ef8"/>
    <path d="M193.78 233.75 A94.50 94.50 0 0 1 189.04 236.06 L176.03 207.37 A63.00 63.00 0 0 0 179.19 205.83 Z" fill="#7c90f7"/>
    <path d="M190.83 235.22 A94.50 94.50 0 0 1 186.01 237.37 L174.01 208.25 A63.00 63.00 0 0 0 177.22 206.82 Z" fill="#7a91f7"/>
    <path d="M187.83 236.60 A94.50 94.50 0 0 1 182.94 238.57 L171.96 209.05 A63.00 63.00 0 0 0 175.22 207.73 Z" fill="#7893f7"/>
    <path d="M184.79 237.86 A94.50 94.50 0 0 1 179.83 239.67 L169.89 209.78 A63.00 63.00 0 0 0 173.19 208.58 Z" fill="#7595f6"/>
    <path d="M181.70 239.02 A94.50 94.50 0 0 1 176.68 240.66 L167.79 210.44 A63.00 63.00 0 0 0 171.13 209.35 Z" fill="#7397f6"/>
    <path d="M178.57 240.08 A94.50 94.50 0 0 1 173.50 241.53 L165.67 211.02 A63.00 63.00 0 0 0 169.05 210.05 Z" fill="#7199f6"/>
    <path d="M175.41 241.02 A94.50 94.50 0 0 1 170.29 242.30 L163.53 211.53 A63.00 63.00 0 0 0 166.94 210.68 Z" fill="#6e9bf6"/>
    <path d="M172.22 241.85 A94.50 94.50 0 0 1 167.06 242.95 L161.37 211.97 A63.00 63.00 0 0 0 164.81 211.23 Z" fill="#6c9cf5"/>
    <path d="M169.00 242.57 A94.50 94.50 0 0 1 163.80 243.49 L159.20 212.32 A63.00 63.00 0 0 0 162.67 211.71 Z" fill="#699ef5"/>
    <path d="M165.76 243.18 A94.50 94.50 0 0 1 160.53 243.91 L157.02 212.61 A63.00 63.00 0 0 0 160.51 212.12 Z" fill="#67a0f5"/>
    <path d="M162.50 243.67 A94.50 94.50 0 0 1 157.25 244.22 L154.83 212.81 A63.00 63.00 0 0 0 158.33 212.45 Z" fill="#65a2f4"/>
    <path d="M159.22 244.05 A94.50 94.50 0 0 1 153.96 244.42 L152.64 212.94 A63.00 63.00 0 0 0 156.15 212.70 Z" fill="#62a4f4"/>
    <path d="M155.93 244.31 A94.50 94.50 0 0 1 150.66 244.50 L150.44 213.00 A63.00 63.00 0 0 0 153.96 212.88 Z" fill="#60a6f4"/>
    <path d="M152.64 244.46 A94.50 94.50 0 0 1 147.36 244.46 L148.24 212.98 A63.00 63.00 0 0 0 151.76 212.98 Z" fill="#5ea8f3"/>
    <path d="M149.34 244.50 A94.50 94.50 0 0 1 144.07 244.31 L146.04 212.88 A63.00 63.00 0 0 0 149.56 213.00 Z" fill="#5ba9f3"/>
    <path d="M146.04 244.42 A94.50 94.50 0 0 1 140.78 244.05 L143.85 212.70 A63.00 63.00 0 0 0 147.36 212.94 Z" fill="#59abf3"/>
    <path d="M142.75 244.22 A94.50 94.50 0 0 1 137.50 243.67 L141.67 212.45 A63.00 63.00 0 0 0 145.17 212.81 Z" fill="#56adf2"/>
    <path d="M139.47 243.91 A94.50 94.50 0 0 1 134.24 243.18 L139.49 212.12 A63.00 63.00 0 0 0 142.98 212.61 Z" fill="#54aff2"/>
    <path d="M136.20 243.49 A94.50 94.50 0 0 1 131.00 242.57 L137.33 211.71 A63.00 63.00 0 0 0 140.80 212.32 Z" fill="#52b1f2"/>
    <path d="M132.94 242.95 A94.50 94.50 0 0 1 127.78 241.85 L135.19 211.23 A63.00 63.00 0 0 0 138.63 211.97 Z" fill="#4fb3f2"/>
    <path d="M129.71 242.30 A94.50 94.50 0 0 1 124.59 241.02 L133.06 210.68 A63.00 63.00 0 0 0 136.47 211.53 Z" fill="#4db5f1"/>
    <path d="M126.50 241.53 A94.50 94.50 0 0 1 121.43 240.08 L130.95 210.05 A63.00 63.00 0 0 0 134.33 211.02 Z" fill="#4bb6f1"/>
    <path d="M123.32 240.66 A94.50 94.50 0 0 1 118.30 239.02 L128.87 209.35 A63.00 63.00 0 0 0 132.21 210.44 Z" fill="#48b8f1"/>
    <path d="M120.17 239.67 A94.50 94.50 0 0 1 115.21 237.86 L126.81 208.58 A63.00 63.00 0 0 0 130.11 209.78 Z" fill="#46baf0"/>
    <path d="M117.06 238.57 A94.50 94.50 0 0 1 112.17 236.60 L124.78 207.73 A63.00 63.00 0 0 0 128.04 209.05 Z" fill="#43bcf0"/>
    <path d="M113.99 237.37 A94.50 94.50 0 0 1 109.17 235.22 L122.78 206.82 A63.00 63.00 0 0 0 125.99 208.25 Z" fill="#41bef0"/>
    <path d="M110.96 236.06 A94.50 94.50 0 0 1 106.22 233.75 L120.81 205.83 A63.00 63.00 0 0 0 123.97 207.37 Z" fill="#3fc0ef"/>
    <path d="M107.98 234.64 A94.50 94.50 0 0 1 103.32 232.17 L118.88 204.78 A63.00 63.00 0 0 0 121.99 206.43 Z" fill="#3cc2ef"/>
    <path d="M105.05 233.13 A94.50 94.50 0 0 1 100.48 230.49 L116.99 203.66 A63.00 63.00 0 0 0 120.04 205.42 Z" fill="#3ac3ef"/>
    <path d="M102.18 231.51 A94.50 94.50 0 0 1 97.70 228.71 L115.14 202.47 A63.00 63.00 0 0 0 118.12 204.34 Z" fill="#38c5ee"/>
    <path d="M99.36 229.79 A94.50 94.50 0 0 1 94.99 226.84 L113.33 201.23 A63.00 63.00 0 0 0 116.24 203.19 Z" fill="#35c7ee"/>
  </g>
  <g><path d="M63.5 115.0 A93.3 93.3 0 0 1 236.5 115.0" fill="none" stroke="#fff" stroke-opacity=".34" stroke-width="2" stroke-linecap="round"/>
    <path d="M91.8 122.9 A64.2 64.2 0 0 1 208.2 122.9" fill="none" stroke="#fff" stroke-opacity=".16" stroke-width="1.4" stroke-linecap="round"/></g>
  <g filter="url(#glow)">
    <path d="M84 150 H118 L130 150 L142 120 L158 188 L172 134 L184 150 H216" stroke="url(#pulse)" stroke-width="8.5" stroke-linejoin="round" stroke-linecap="round"/>
    <circle cx="84" cy="150" r="5.5" fill="#cdf3fd"/><circle cx="216" cy="150" r="5.5" fill="#cdf3fd"/>
  </g>
</svg>
